<svg width="512" height="512" viewBox="0 0 512 512" fill="none" xmlns="http://www.w3.org/2000/svg">
  <rect width="512" height="512" rx="100" fill="white"/>
  <path d="M352 240H328V192C328 152.235 295.765 120 256 120C216.235 120 184 152.235 184 192V240H160C146.745 240 136 250.745 136 264V432C136 445.255 146.745 456 160 456H352C365.255 456 376 445.255 376 432V264C376 250.745 365.255 240 352 240ZM256 380C242.745 380 232 369.255 232 356C232 342.745 242.745 332 256 332C269.255 332 280 342.745 280 356C280 369.255 269.255 380 256 380ZM296 240H216V192C216 169.909 233.909 152 256 152C278.091 152 296 169.909 296 192V240Z" fill="#2563EB"/>
</svg>