<svg width="1024" height="1024" xmlns="http://www.w3.org/2000/svg" xmlns:xlink="http://www.w3.org/1999/xlink"><defs><linearGradient x1="50%" y1="19.04%" x2="50%" y2="100%" id="d"><stop stop-color="#FFF" offset="0%"/><stop stop-color="#ECECEC" offset="100%"/></linearGradient><linearGradient x1="50%" y1="0%" x2="50%" y2="100%" id="e"><stop stop-color="#0C54D4" offset="0%"/><stop stop-color="#2B77FF" offset="100%"/></linearGradient><path d="M0 0h1024v1024H0V0Z" id="a"/><path d="M632.45 923.1h-232.3c-11.46 0-22.92 0-34.38-.07-9.66-.05-19.3-.17-28.96-.43-21.03-.57-42.24-1.8-63.03-5.54-21.1-3.79-40.74-9.97-59.9-19.72a201.44 201.44 0 0 1-88.1-88c-9.76-19.16-15.95-38.77-19.74-59.85-3.74-20.77-4.97-41.96-5.54-62.97-.27-9.64-.38-19.29-.43-28.93-.04-6.87-.06-13.74-.07-20.6V391.16c0-5.72.01-11.45.03-17.17l.04-8.59c.05-9.64.16-19.28.43-28.93.57-21 1.8-42.2 5.54-62.97 3.8-21.08 9.98-40.7 19.74-59.84a201.28 201.28 0 0 1 88.1-88.01c19.16-9.75 38.8-15.93 59.9-19.72 20.8-3.74 42-4.97 63.03-5.54 9.65-.26 19.3-.37 28.96-.43 9.17-.05 18.33-.07 27.5-.07h239.18c8.6 0 17.19.02 25.78.07 9.66.06 19.3.17 28.96.43 21.03.57 42.24 1.8 63.04 5.54 21.1 3.79 40.73 9.97 59.9 19.72a201.44 201.44 0 0 1 88.09 88c9.76 19.16 15.95 38.77 19.74 59.85 3.74 20.77 4.97 41.97 5.54 62.97.27 9.65.38 19.29.43 28.93.05 8.59.07 17.17.07 25.76v236.37c0 7.15 0 14.3-.03 21.46l-.04 8.6c-.05 9.63-.16 19.28-.43 28.92-.57 21-1.8 42.2-5.54 62.97-3.8 21.08-9.98 40.7-19.74 59.84a201.26 201.26 0 0 1-88.1 88.01c-19.16 9.75-38.8 15.93-59.9 19.72-20.8 3.74-42 4.97-63.03 5.54-9.65.26-19.3.38-28.96.43-8.6.05-17.19.07-25.78.07Z" id="c"/><filter x="-2.1%" y="-1.1%" width="104.1%" height="104.4%" filterUnits="objectBoundingBox" id="b"><feOffset dy="10" in="SourceAlpha" result="shadowOffsetOuter1"/><feGaussianBlur stdDeviation="4" in="shadowOffsetOuter1" result="shadowBlurOuter1"/><feColorMatrix values="0 0 0 0 0.372468175 0 0 0 0 0.372468175 0 0 0 0 0.372468175 0 0 0 0.25 0" in="shadowBlurOuter1"/></filter></defs><g fill="none"><use fill="#000" filter="url(#b)" xlink:href="#c"/><use fill="url(#d)" xlink:href="#c"/><path d="M511.77 200.8c21.5 0 42.36 4.2 62.01 12.5 18.97 8 36 19.45 50.63 34.03a158.26 158.26 0 0 1 46.65 112.31v61.86c45.07 42.28 73.2 102.3 73.2 168.87 0 128.04-104.08 231.83-232.5 231.83-128.4 0-232.5-103.8-232.5-231.83 0-66.57 28.15-126.59 73.21-168.87v-61.86a158.25 158.25 0 0 1 46.66-112.31 158.75 158.75 0 0 1 50.62-34.03 158.7 158.7 0 0 1 62.02-12.5Zm0 284.93c-34.36 0-62.2 27.77-62.2 62.02A62.08 62.08 0 0 0 493 606.91l-3.79 57.98c-.84 12.99 9.49 23.99 22.55 23.99s23.39-11 22.54-24l-3.78-57.97a62.08 62.08 0 0 0 43.45-59.16c0-34.25-27.86-62.02-62.21-62.02Zm0-233.54a107.21 107.21 0 0 0-76.2 31.47 106.59 106.59 0 0 0-31.56 75.98v25.25a232.03 232.03 0 0 1 107.76-26.35c38.89 0 75.55 9.52 107.76 26.35v-25.25c0-28.7-11.21-55.68-31.56-75.98a107.21 107.21 0 0 0-76.2-31.47Z" fill="url(#e)" fill-rule="evenodd"/></g></svg>